Coordinates
version=1
nRows=8
nColumns=63
inDegrees=yes

Units are S.I. units (second, meters, Newtons, ...)
If the header above contains a line with 'inDegrees', this indicates whether rotational values are in degrees (yes) or radians (no).

endheader
time	pelvis_tilt	pelvis_list	pelvis_rotation	pelvis_tx	pelvis_ty	pelvis_tz	hip_flexion_r	hip_adduction_r	hip_rotation_r	knee_angle_r	knee_angle_r_beta	ankle_angle_r	subtalar_angle_r	mtp_angle_r	hip_flexion_l	hip_adduction_l	hip_rotation_l	knee_angle_l	knee_angle_l_beta	ankle_angle_l	subtalar_angle_l	mtp_angle_l	L5_S1_Flex_Ext	L5_S1_Lat_Bending	L5_S1_axial_rotation	L4_L5_Flex_Ext	L4_L5_Lat_Bending	L4_L5_axial_rotation	L3_L4_Flex_Ext	L3_L4_Lat_Bending	L3_L4_axial_rotation	L2_L3_Flex_Ext	L2_L3_Lat_Bending	L2_L3_axial_rotation	L1_L2_Flex_Ext	L1_L2_Lat_Bending	L1_L2_axial_rotation	L1_T12_Flex_Ext	L1_T12_Lat_Bending	L1_T12_axial_rotation	Abs_r3	Abs_r2	Abs_r1	Abs_t1	Abs_t2	neck_flexion	neck_bending	neck_rotation	arm_flex_r	arm_add_r	arm_rot_r	elbow_flex_r	pro_sup_r	wrist_flex_r	wrist_dev_r	arm_flex_l	arm_add_l	arm_rot_l	elbow_flex_l	pro_sup_l	wrist_flex_l	wrist_dev_l
0.000000	3.995470	-4.536011	99.391491	0.186442	1.022194	0.144869	3.142249	2.714598	-25.921160	13.306940	0.232250	35.157980	18.241153	0.000000	5.112015	-3.879780	-12.649838	12.497426	0.218121	35.574686	15.644801	0.000000	0.447911	0.483265	-0.991041	0.831815	0.642742	-1.052981	0.735873	1.175010	-1.052981	0.511917	1.175010	-0.867161	0.415930	0.985473	-0.805221	0.255936	0.748577	-0.743281	3.199382	5.466787	-5.511871	0.000000	0.000000	28.005313	2.149192	2.404402	21.320075	-7.003326	75.387288	42.640682	2.154574	-6.799190	16.264500	19.390593	-1.019562	62.023055	39.589376	73.081920	-8.643768	1.248472
0.016949	4.060100	-4.367919	100.005287	0.185777	1.022985	0.143810	2.742026	2.927261	-26.064911	12.907448	0.225277	34.996803	18.025115	0.000000	5.029019	-3.946749	-12.501470	12.514601	0.218421	35.732201	15.687574	0.000000	0.440027	0.489570	-1.167936	0.817175	0.651128	-1.240932	0.722921	1.190340	-1.240932	0.502907	1.190340	-1.021944	0.408610	0.998331	-0.948948	0.251432	0.758343	-0.875952	3.143072	5.538111	-6.495712	0.000000	0.000000	27.942142	2.335482	2.907409	21.167222	-6.841339	75.991836	42.684895	2.104511	-6.748406	16.189372	19.491546	-1.560189	62.316606	39.982161	72.090866	-8.080602	1.150527
0.033898	4.102601	-4.210396	100.548819	0.185188	1.023634	0.142857	2.378783	3.094070	-26.197435	12.580578	0.219573	34.854275	17.846339	0.000000	4.928693	-3.989915	-12.316639	12.513486	0.218402	35.837191	15.711359	0.000000	0.432388	0.492522	-1.315979	0.802987	0.655054	-1.398228	0.710370	1.197517	-1.398228	0.494176	1.197517	-1.151482	0.401515	1.004350	-1.069233	0.247066	0.762916	-0.986985	3.088501	5.571504	-7.319083	0.000000	0.000000	27.887424	2.473729	3.227594	21.121416	-6.709568	76.574955	42.674365	3.348390	-6.459236	15.914553	19.591922	-2.003152	62.478729	40.306747	71.594168	-7.467671	1.176387
0.050847	4.125211	-4.063139	101.026257	0.184673	1.024153	0.142007	2.050432	3.219169	-26.320467	12.319941	0.215024	34.727479	17.702241	0.000000	4.813894	-4.011896	-12.101983	12.496653	0.218108	35.895451	15.719249	0.000000	0.424971	0.492490	-1.437209	0.789214	0.655012	-1.527034	0.698185	1.197441	-1.527034	0.485699	1.197441	-1.257558	0.394628	1.004286	-1.167732	0.242828	0.762867	-1.077907	3.035525	5.571148	-7.993324	0.000000	0.000000	27.840399	2.568873	3.384737	21.170842	-6.606568	77.138015	42.618052	5.687590	-5.966163	15.469240	19.692838	-2.356624	62.526623	40.569155	71.533459	-6.815337	1.310802
0.067797	4.130173	-3.925849	101.441769	0.184225	1.024555	0.141256	1.754883	3.306702	-26.435738	12.119149	0.211519	34.613500	17.590235	0.000000	4.687482	-4.015311	-11.864139	12.466670	0.217584	35.912776	15.714337	0.000000	0.417757	0.489845	-1.533664	0.775817	0.651494	-1.629518	0.686333	1.191009	-1.629518	0.477455	1.191009	-1.341956	0.387929	0.998892	-1.246102	0.238706	0.758770	-1.150248	2.983998	5.541224	-8.529777	0.000000	0.000000	27.800308	2.625854	3.398620	21.303685	-6.530898	77.682381	42.524915	8.923493	-5.303667	14.882628	19.795413	-2.628778	62.477485	40.775404	71.850370	-6.133961	1.538520
0.084746	4.119725	-3.798224	101.799525	0.183841	1.024851	0.140600	1.490046	3.360811	-26.544982	11.971814	0.208948	34.509420	17.507735	0.000000	4.552313	-4.002778	-11.609745	12.426108	0.216876	35.894961	15.699715	0.000000	0.410726	0.484955	-1.607383	0.762759	0.644991	-1.707844	0.674782	1.179121	-1.707844	0.469419	1.179121	-1.406460	0.381400	0.988921	-1.305999	0.234689	0.751196	-1.205537	2.933775	5.485913	-8.939782	0.000000	0.000000	27.766395	2.649612	3.289024	21.508129	-6.481113	78.209419	42.403911	12.857481	-4.506231	14.183915	19.900765	-2.827788	62.348515	40.931513	72.486531	-5.433906	1.844291
0.101695	4.096109	-3.679964	102.103695	0.183517	1.025053	0.140035	1.253833	3.385639	-26.649931	11.871547	0.207198	34.412325	17.452158	0.000000	4.411248	-3.976915	-11.345439	12.377537	0.216029	35.847801	15.678478	0.000000	0.403857	0.478191	-1.660406	0.750003	0.635995	-1.764181	0.663497	1.162675	-1.764181	0.461568	1.162675	-1.452855	0.375022	0.975128	-1.349080	0.230764	0.740718	-1.245304	2.884711	5.409397	-9.234679	0.000000	0.000000	27.737900	2.645087	3.075730	21.772360	-6.455772	78.720499	42.264001	17.290934	-3.608335	13.402296	20.010011	-2.961826	62.156912	41.043504	73.383574	-4.725532	2.212864
0.118644	4.061563	-3.570767	102.358449	0.183248	1.025174	0.139559	1.044153	3.385330	-26.752319	11.811960	0.206158	34.319297	17.420917	0.000000	4.267142	-3.940340	-11.077860	12.323526	0.215086	35.777090	15.653719	0.000000	0.397130	0.469922	-1.694771	0.737510	0.624997	-1.800694	0.652445	1.142569	-1.800694	0.453880	1.142569	-1.482925	0.368775	0.958266	-1.377002	0.226920	0.727910	-1.271078	2.836661	5.315856	-9.425808	0.000000	0.000000	27.714064	2.617218	2.778519	22.084562	-6.453432	79.216985	42.114144	22.025236	-2.644463	12.566968	20.124271	-3.039066	61.919874	41.117394	74.483129	-4.019202	2.628988
